<svg width="569" height="524" viewBox="0 0 569 524" fill="none" xmlns="http://www.w3.org/2000/svg">
<path d="M97.7103 135.76L53.3003 233.89L52.0503 235.86L51.3003 236.51L50.4703 236.92L48.8903 237.11L47.0903 236.66L46.8803 236.57L44.8403 235.31L44.1803 234.55L43.7503 233.71L43.5703 232L44.1503 230.03L89.8903 129.43L90.0903 128.6L89.9703 127.77L89.5503 127.07L88.8903 126.62L88.8103 126.59L84.8803 125.03L81.1803 123.16L77.9203 121.1L75.0703 118.82L72.6803 116.37L70.7803 113.8L69.3303 111.01L68.4103 108.16L68.2503 107.36L67.8603 104.11L67.9203 101.07L68.4403 98.25L69.4003 95.64L70.5403 93.65L71.9803 91.79L73.7403 90.09L75.8003 88.53L77.9603 87.61L81.0003 87.15L83.0503 87.26L84.8503 87.85L86.3803 88.92L87.4603 90.37L87.9103 91.62L88.0503 93L87.8903 94.39L87.4003 95.85L86.2203 99.23L86.0903 100.64L86.2603 101.85L86.6903 102.91L87.4103 103.97L89.2203 105.79L91.2603 107.22L93.8703 108.37L96.7803 108.99L103.41 109.37L106.69 109.26L109.95 108.95L114.05 108.26L118.11 107.25L126.81 104.42L135.94 100.85L151.29 94.53L165.38 88.99L178.19 84.22L189.74 80.24L196.88 78.04L204.07 76.14L211.31 74.52L218.59 73.2L230.23 71.71L241.99 70.96L243.18 70.82L244.91 70.22L246.62 69.12L248.36 67.47L250.51 64.93L253.75 61.31L258.82 57.14L264.09 53.59L269.55 50.66L275.2 48.35L275.74 47.98L276.01 47.37L276.34 43.7L276.19 39.94L276.13 39.21L275.98 38.01L275.69 37.27L275.21 36.77L274.43 36.32L271.59 34.72L269.15 32.72L267.46 30.81L266.06 28.71L264.92 26.35L264.12 23.86L263.67 21.31L263.55 18.71L263.77 16.08L264.35 13.46L265.74 10.05L266.74 8.42L267.9 6.90001L270.68 4.23L273.94 2.14L277.54 0.710007L281.37 0L285.24 0.0800018L288.88 0.910004L291.54 2.07001L294.08 3.7L296.47 5.83L298.52 8.27L300.18 10.98L301.41 13.87L302.16 16.83L302.42 19.85L302.17 22.74L301.4 25.57L300.25 28L298.64 30.3L296.56 32.54L294.15 34.7L291.89 36.36L289.8 37.5L289.37 37.86L289.21 38.4V47.09L289.36 47.58L289.81 47.83L294.57 49.18L299.26 51.08L303.9 53.53L308.47 56.52L314.87 61.72L315.63 62.46L316.88 63.66L317.99 64.44L318.44 64.6H318.93L322.41 64.19L326.26 64.12L333.39 64.24L347.49 64.58L357.52 65.34L366.94 66.63L376.43 68.31L385.98 70.38L395.6 72.84L436.77 84.54L446.42 87.01L455.91 88.71L458.67 89L461.29 89.08L463.75 88.94L466.07 88.59L468.65 87.94L471.07 87.09L473.35 86.01L475.3 84.81L476.89 83.51L478.24 82.03L479.21 80.48L479.88 78.76L480.11 77.71L479.89 76.8L478.33 74.32L477.41 72.24L477.09 70.46L477.34 68.96L477.79 68.12L478.49 67.32L480.53 66.04L483.53 64.86L485.45 64.49L487.72 64.71L489.84 65.25L491.88 66.11L493.71 67.25L495.24 68.56L496.56 70.07L497.65 71.76L498.5 73.6L499.1 75.57L499.42 77.64L499.46 79.7L499.23 81.8L498.38 85.29L497.12 88.53L495.63 91.28L493.85 93.81L491.72 96.2L489.33 98.35L486.59 100.33L483.63 102.06L480.38 103.57L476.97 104.8L476.92 104.82L476.48 105.25L476.5 105.87L477.59 108.27L526.51 214.9L527.45 217.16L527.92 219.05L527.95 220.74L527.52 222.17L527.3 222.55L526.31 223.48L524.7 224.1L522.59 224.36L520.38 224.23L519.64 223.91L519.14 223.29L470.23 116.07L469.9 115.52L469.56 115.33L469.22 115.52L468.88 116.08L420.22 223.4L419.14 225.09L418.5 225.63L417.79 225.97L417.01 226.11L416.15 226.04L414.24 225.28L413.86 225.06L412.36 223.9L411.45 222.51L411.18 221.44L411.17 220.27L411.42 218.99L411.94 217.61L460.71 110.05L460.95 109.24L460.83 108.67L460.37 108.34L459.57 108.22L448.57 107.84L437.52 106.87L426.42 105.29L415.26 103.11L397.68 99.28L388.83 97.74L380.01 96.74L371.2 96.27L362.41 96.34L352.21 97.09L342.03 98.57L337.28 99.59L332.37 100.96L331.95 101.09L328.64 102.4L325.34 104.17L321.86 106.46L316.95 110.1L313.45 112.73L305.75 118.08L302.43 120.05L299.21 121.71L294.49 123.73L293.29 124.4L292.6 125.28L292.42 126.16L292.57 127.17L292.65 127.7L292.59 128.15L292.25 129.97L292.1 132.09L292.34 137.98L292.53 140.77L293.03 147.16L297.91 187.22L302.37 226.55L306.38 265.16L309.97 303.03L311.37 322.98L311.75 332.51L311.9 341.74L311.73 348.69L311.14 355.13L310.13 360.98L308.67 366.38L306.78 371.26L304.43 375.67L301.66 379.56L298.47 382.95L295.89 385.11L292.75 387.03L289.16 388.38L285.29 389.06L281.35 389.08L277.27 388.42L273.36 387.1L269.82 385.22L266.69 382.78L264.52 380.5L262.47 377.8L260.65 374.85L259 371.53L257.57 367.96L256.35 364.13L255.37 360.09L254.66 355.97L253.97 349.82L253.57 343.47L253.45 336.8L253.61 329.92L254.59 311.71L256.06 292.28L258.05 270.95L261.17 241.14L262.5 228.73L266.15 197.97L269.61 168.59L270.61 157.81L271.26 148.3L272.32 129.95V128L272.01 126.14L271.76 125.32L271.53 124.93L271.11 124.69L264.13 122.11L257.54 118.85L251.52 115.03L245.87 110.57L244.49 109.52L243.01 108.65L239.53 107.33L235.36 106.53L229.72 106.11L223.1 106L216.29 106.18L209.48 106.67L202.48 107.45L195.38 108.52L188.1 109.9L180.58 111.6L172.85 113.61L139.45 122.82L129.41 125.39L121.5 127.02L114.74 127.87L107.09 128.26L106.72 128.4L106.68 128.79L107.56 131.76L108.72 134.67L140.18 205.02L146.5 218.69L150.4 227.08L152.71 232.47L152.81 232.86L152.63 234L151.74 235.24L150.13 236.55L148.49 237.34L146.64 237.8L145.35 237.7L144.6 237.28L143.99 236.65L142.76 234.38L142.49 233.8L133.16 213.58L124.77 194.91L112.13 166.78L102.23 144.77L98.1003 135.79L97.8903 135.57L97.7103 135.76ZM303.01 86.92L302.63 83.07L301.51 79.36L299.68 75.95L297.23 72.95L294.23 70.5L290.82 68.67L287.11 67.55L283.26 67.17L279.41 67.55L275.7 68.67L272.29 70.5L269.29 72.95L266.84 75.95L265.01 79.36L263.89 83.07L263.51 86.92L263.89 90.77L265.01 94.48L266.84 97.89L269.29 100.89L272.29 103.34L275.7 105.17L279.41 106.29L283.26 106.67L287.11 106.29L290.82 105.17L294.23 103.34L297.23 100.89L299.68 97.89L301.51 94.48L302.63 90.77L303.01 86.92Z" fill="black"/>
<path d="M388.071 295.93L387.951 295.55L387.671 295.84L380.201 308.77L379.301 309.96L378.201 310.76L376.921 311.17L375.431 311.19L373.801 310.89L371.941 309.38L371.381 308.55L371.061 307.66L371.051 306.16L371.651 304.52L386.531 276.92L387.241 275.41L387.721 273.84L387.961 272.22L388.261 266.19L388.241 235.1L388.461 234.43L389.121 234.21H550.571L551.031 234.36L551.191 234.82L551.181 267.2L551.481 272.15L551.821 274.25L552.711 276.93L555.641 283.07L559.981 291.23L563.981 298.7L566.711 304.3L567.251 306.13L567.061 307.69L566.291 308.86L564.931 309.8L563.651 310.44L561.951 311.01L560.451 310.93L559.151 310.18L558.051 308.77L551.631 297.66L551.391 297.43L551.261 297.73L551.081 299.37L551.521 316.57L551.391 317.03L550.941 317.23L549.091 317.49L546.291 317.8L500.471 318.12L423.971 318.32L391.221 318L389.601 317.73L388.541 317L388.111 316.14L388.021 315L388.321 305.13L388.071 295.93ZM443.091 307.16L443.911 306.82L444.251 306V300.46L443.911 299.64L443.091 299.3H428.351L427.671 299.08L427.321 298.67L427.191 298.14V247.31L426.851 246.49L426.031 246.15H419.391L418.571 246.49L418.231 247.31V306L418.571 306.82L419.391 307.16H443.091ZM457.801 306.07L457.291 299.39L457.181 291.19V246.77L457.011 246.38L456.621 246.22H449.731L449.381 246.34L449.261 246.69V306.03L449.611 306.87L450.441 307.21H456.781L457.621 306.92L457.801 306.07ZM473.881 307.17L474.051 307.16L474.871 306.72L475.191 305.85L474.941 283.1L475.241 282.25L475.691 281.9L476.251 281.78H486.891L487.081 281.77L487.881 281.33L488.201 280.47V275.55L488.101 275.04L487.811 274.61L487.381 274.33L486.871 274.24L476.481 274.35L475.551 273.98L475.161 273.06L474.961 255.44L475.061 254.94L475.341 254.51L475.771 254.22L476.271 254.12H490.021L490.791 253.87L491.271 253.21L491.331 252.81V247.53L491.321 247.41L490.901 246.56L490.021 246.22H467.451L466.541 246.59L466.141 247.49V247.53V305.86L466.151 305.98L466.571 306.83L467.451 307.17H473.881ZM506.351 299.27L505.511 298.92L505.161 298.08V281.35L505.511 280.51L506.351 280.16H517.051L517.891 279.81L518.241 278.97V274.43L517.891 273.59L517.051 273.24H506.281L505.681 273.08L505.251 272.64L505.091 272.05V255.32L505.441 254.48L506.281 254.13H521.051L521.851 253.82L522.231 253.06L522.241 252.94V248.3L522.221 248.08L521.811 247.39L521.051 247.11H497.311L496.471 247.46L496.121 248.3V305.97L496.471 306.81L497.311 307.16H521.051L521.891 306.81L522.241 305.97V300.46L521.891 299.62L521.051 299.27H506.351Z" fill="black"/>
<path d="M16.02 314.57L15.91 314.42L15.76 314.55L9.16003 325.98L8.83003 326.38L8.40002 326.65L7.17003 327L5.14003 326.95L3.00003 326.19L1.38004 325.05L0.470032 323.65L0.290039 322.78L0.310028 321.83L1.01003 319.71L14.45 292.69L15.52 290.19L15.93 288.04L16.35 274.32L16.32 256.77L16.27 246.97L16.41 246.3L16.79 245.72L17.37 245.34L18.05 245.21H197.43L198.11 245.35L198.69 245.73L199.07 246.31L199.21 246.99V326.2V326.23L199.09 326.76L198.77 327.2L198.31 327.49L197.77 327.57L187.42 327.21L176.72 327.12L122.72 327.2L101.74 327.71L85.61 328.18L74.47 328.14L74.23 328.13L58.4 327.74L47.89 327.68L36.6 327.96L27.61 328.12L18.84 327.92L18.11 327.74L17.51 327.28L17.13 326.63L17.04 325.88L17.05 325.81L17.27 322.88L17.18 320.05L16.78 317.33L16.07 314.72L16.02 314.57ZM79.99 286.63L80.15 300.43L80.56 304.92L81.36 308.54L82.61 311.48L84.37 313.89L86.37 315.6L88.71 316.89L91.76 317.82L95.21 318.13L98.65 317.81L101.7 316.85L104.03 315.55L106.02 313.84L107.77 311.42L109 308.47L109.79 304.85L110.17 300.35L110.26 286.56L110.1 272.76L109.7 268.27L108.89 264.65L107.64 261.71L105.88 259.3L103.88 257.6L101.55 256.31L98.49 255.37L95.05 255.06L91.6 255.39L88.55 256.34L86.22 257.64L84.23 259.35L82.49 261.77L81.25 264.72L80.46 268.35L80.08 272.84L79.99 286.63ZM52.04 288.38L52.7 290.43L53.04 292.22L54.51 304.62L56.18 316.33L56.54 316.97L57.24 317.23H66.99L67.66 316.98L67.99 316.34L75.48 257.06L75.35 256.42L74.74 256.21H68.92L67.93 256.53L67.51 257.49L65.07 279.8L62.15 302.19L61.85 303.8L61.55 304.34L61.26 303.8L60.98 302.19L58.94 284.68L57.5 268.05L56.69 260.92L55.96 256.93L55.74 256.51L55.32 256.31L52.27 256.06L48.84 256.38L48.42 256.58L48.23 257.03L43.02 302.77L42.92 303L42.41 303.52L42.02 303.63L41.75 303.34L41.6 302.65L39.22 281.62L35.98 257L35.74 256.47L35.21 256.24L27.87 255.41L27.25 255.55L27.12 256.17L34.86 316.15L35.1 316.5L35.73 316.83L37.52 317.26L40.02 317.43L43.33 317.33L46.63 316.98L47.46 316.56L47.87 315.71L51.32 288.46L51.59 287.69L52.04 288.38ZM140.74 288.28L140.5 287.9L140.7 287.5L142.45 285.61L143.81 283.78L144.79 282.02L145.39 280.32L146.04 276.94L146.33 273.64L146.25 270.44L145.81 267.32L145.01 264.1L144.03 261.58L142.79 259.63L141.32 258.19L139.21 257.05L136.75 256.46L133.07 256.13L128.7 256.01L117.86 256.38L117.35 256.59L117.19 257.09V315.45L117.3 316.24L117.64 316.81L118.21 317.15L119 317.26H124.46L125.22 317.15L125.77 316.82L126.1 316.27L126.21 315.5V293.73L126.32 293.16L126.63 292.68L127.11 292.34L127.67 292.21L130.31 292.3L132.83 292.8L134.68 293.46L136.24 294.4L136.68 294.93L136.9 295.5L136.91 295.54L137.4 301.15L137.35 310.2L137.25 315.7L137.34 316.37L137.62 316.84L138.1 317.13L138.76 317.22H144.69L145.34 317.13L145.82 316.85L146.11 316.39L146.22 315.75L146.33 309.23L146.24 300.22L146.06 297.85L145.6 295.64L144.88 293.61L143.88 291.76L142.48 289.91L140.74 288.28ZM162.17 284.03V257.57L162.06 257.03L161.76 256.58L161.31 256.28L160.77 256.17H154.57L154 256.25L153.58 256.49L153.3 256.95L153.21 257.6V316.1L153.49 316.94L154.33 317.22H161L161.81 316.95L162.09 316.15V310.57L161.82 305.93L161.76 302.4L162.32 299.52L163.63 296.19L165.02 293.58L165.14 293.44L165.67 293.32L166.08 293.68L175.24 315.88L176.02 316.91L176.6 317.17L177.3 317.26H184.05L184.81 316.99L184.77 316.19L172.02 285.26L171.77 283.99L172.1 282.71L184.59 256.95L184.66 256.37L184.1 256.17H177.72L176.51 256.52L175.67 257.45L162.72 284.16L162.31 284.69L162.17 284.03Z" fill="black"/>
<path d="M95.4414 263.351L95.1014 263.35C91.8374 263.338 89.1822 265.975 89.1708 269.239L89.0485 304.279C89.0371 307.543 91.6738 310.198 94.9378 310.209L95.2778 310.211C98.5418 310.222 101.197 307.585 101.208 304.321L101.331 269.282C101.342 266.018 98.7054 263.362 95.4414 263.351Z" fill="black"/>
<path d="M126.24 265.491L126.36 264.891L126.69 264.391L127.2 264.051L127.8 263.931L131.33 263.941L132.53 264.071L133.68 264.441L134.74 265.041L135.67 265.841L136.44 266.821L137 267.941L137.35 269.161L137.47 270.421L137.45 277.861L137.33 279.121L136.98 280.331L136.41 281.451L135.64 282.431L134.71 283.231L133.65 283.831L132.49 284.201L131.29 284.321L127.76 284.311L127.17 284.191L126.66 283.851L126.32 283.351L126.2 282.751L126.24 265.491Z" fill="black"/>
<path d="M501.91 384.62L495.72 386.45L489.54 387.9L483.27 388.99L477.03 389.7L470.8 390.04L464.62 390.01L458.39 389.6L452.24 388.83L447.19 387.91L442.2 386.74L437.28 385.33L432.43 383.68L427.62 381.77L422.9 379.62L418.27 377.24L413.75 374.63L409.36 371.8L405.08 368.75L400.92 365.49L396.89 362.01L393.03 358.35L389.3 354.49L385.72 350.44L382.29 346.18L377.99 339.94L373.61 332.32L372.65 330.3L371.93 328.3L371.44 326.32L371.18 324.36V324.2L371.32 323.59L371.71 323.08L372.27 322.78L372.9 322.73L379.01 323.21L385.23 323.05L393.48 322.53L399.98 322.34L468.5 322.22L537.06 322.38L541.22 322.18L545.72 322L567.6 322.32L568.3 322.64L568.52 323.37L568.49 323.5L567.15 327.5L565.42 331.5L563.3 335.51L560.8 339.52L555.9 346.31L550.57 352.7L544.84 358.65L538.73 364.17L532.26 369.19L525.45 373.73L518.4 377.72L511.04 381.19L506.53 383L501.91 384.62Z" fill="black"/>
<path d="M133.791 395.931L128.141 397.841L122.401 399.421L116.471 400.681L110.481 401.601L104.401 402.181L98.3008 402.411L92.2008 402.301L86.1108 401.851L80.0808 401.061L74.1008 399.941L68.1908 398.491L62.3808 396.701L56.7308 394.601L51.2108 392.171L45.9308 389.481L40.8208 386.471L34.7208 382.321L28.8408 377.711L23.3008 372.731L18.0808 367.361L13.3308 361.761L8.97078 355.851L5.10078 349.721L1.79079 343.521L0.58078 340.381L0.0507812 337.371V337.341L0.360779 336.551L1.14078 336.221H194.781L195.271 336.331L195.661 336.631L195.891 337.071L195.911 337.571L195.851 337.771L193.381 343.751L190.951 348.381L190.561 349.011L187.671 353.481L184.641 357.761L181.471 361.861L178.151 365.771L174.691 369.491L171.081 373.031L167.331 376.391L163.441 379.561L156.621 384.421L149.411 388.781L141.801 392.611L133.791 395.931Z" fill="black"/>
<path d="M235.941 412.89L238.611 411.45L241.081 409.87L244.571 407.15L247.881 403.93L251.101 400.11L254.351 395.57L255.631 394.13L257.211 393.29L258.521 393.12L259.991 393.37L264.241 394.73L266.551 395.68L269.831 397.35L273.081 398.68L276.451 399.75L279.931 400.57L283.541 401.12L286.201 401.29L288.731 401.17L292.751 400.4L296.771 398.92L300.941 396.69L305.911 393.36L307.961 392.34L308.851 392.29L309.571 392.81L312.831 397.32L316.211 401.44L319.701 405.16L323.311 408.48L325.821 410.35L328.511 411.84L330.721 412.74L333.051 413.4L335.481 413.84L338.021 414.04L352.211 414.76L364.551 415.84L376.831 417.37L386.331 419.02L394.691 421.06L402.521 423.65L406.651 425.33L409.571 426.83L412.031 428.57L414.031 430.58L415.571 432.83L416.251 434.24L416.351 434.69L416.281 435.13L415.861 436.15L415.111 437.48L414.201 438.66L411.781 440.79L408.531 442.58L404.531 444.01L394.191 446.67L383.191 448.89L371.581 450.68L359.501 452.01L341.761 453.4L323.911 454.42L305.971 455.06L287.931 455.33L269.781 455.22L251.541 454.73L233.191 453.87L214.751 452.64L203.411 451.62L192.641 450.36L182.441 448.84L172.801 447.07L164.801 445.12L164.271 444.97L157.881 442.87L155.411 441.79L153.331 440.62L151.641 439.38L150.421 438.11L149.581 436.78L149.141 435.31L149.231 433.29L150.041 431.24L150.751 430.24L151.761 429.27L154.651 427.4L159.961 424.86L165.351 422.7L170.831 420.95L176.391 419.58L176.791 419.5L189.111 417.3L201.411 415.71L213.701 414.72L225.971 414.35L229.241 414.25L231.971 413.98L234.201 413.53L235.941 412.89Z" fill="black"/>
<path d="M142.8 443.56L143.41 444.48L144.7 446.09L146.13 447.53L147.73 448.82L149.63 450.07L153.97 452.21L159.91 454.33L167.56 456.31L178.01 458.25L191.17 460.18L204.51 461.71L218.05 462.85L231.77 463.59L271 464.96L280.63 465.13L290.98 465.04L327.18 464.07L340.44 463.5L350.47 462.87L368.67 461.12L386.48 458.71L397.63 456.68L402.02 455.63L405.62 454.55L406.21 454.35L411.87 452.27L413.78 451.38L415.11 450.55L418.54 447.51L421.33 444.04L421.35 444.02L421.71 443.73L422.15 443.76L441.61 450.86L447.98 453.49L453.6 456.06L458.47 458.56L462.59 461L466.21 463.59L468.62 465.97L469.43 467.11L470.03 468.3L470.36 469.44L470.43 470.61L469.97 472.49L468.84 474.26L467 475.98L464.57 477.46L461.5 478.74L456.99 480.15L450.07 482.01L443.01 483.63L435.8 485.01L428.45 486.15L410.18 488.5L397.56 489.75L372.94 491.43L357.09 492.27L295.51 494.14L284.72 494.32L272.79 494.28L241.65 493.53L224.1 493.04L203.67 492.25L178.51 490.69L166.93 489.75L155.02 488.5L142.8 486.97L130.25 485.13L129.5 485.01L121.85 483.72L115.27 482.34L109.62 480.85L104.81 479.22L100.95 477.48L98.0303 475.61L96.1203 473.65L95.5503 472.68L95.2003 471.66L95.0703 469.91L95.6303 467.8L96.9703 465.75L99.1703 463.67L102.41 461.37L107.8 458.26L114.74 454.99L142.06 443.33L142.48 443.29L142.8 443.56Z" fill="black"/>
<path d="M105.85 489.3L112.04 490.71L125.1 493.28L137.99 495.24L158.24 497.59L177.74 499.43L198.24 500.9L219.73 502L242.23 502.73L261.52 503.07L280.64 503.18L299.59 503.05L318.37 502.69L336.98 502.08L355.43 501.25L373.7 500.18L391.8 498.87L403.8 497.8L415.91 496.48L428.13 494.9L440.47 493.08L449.81 491.5L456.87 489.96L463 488.18L468.54 486.04L470.63 484.98L472.49 483.75L474.14 482.34L475.56 480.76L476.42 479.56L476.86 479.16L477.06 479.72L477.4 487.8L477.28 495.94L476.88 498.69L475.91 500.84L474.38 502.46L472.37 503.88L470.17 505.13L467.78 506.22L465.19 507.14L454.04 510.29L443.98 512.43L430.31 514.71L422 515.93L402.33 518.12L383.28 519.81L364.83 520.99L346.99 521.68L301.47 522.9L281.48 523.19L271.96 523.21L259.75 523.2L250.57 522.96L249.49 522.91L229.38 522.29L212.88 521.82L201.47 521.32L180.4 519.93L158.53 518.07L146.44 516.72L134.12 514.92L121.57 512.66L108.79 509.94L104.77 508.9L100.91 507.65L97.2301 506.18L93.7201 504.51L91.9801 503.47L90.4601 502.26L89.2701 500.95L88.3301 499.45L87.5801 497.43L87.2601 495.1L87.1201 486.83L87.3901 480.05L87.5301 479.28L87.8001 478.96L88.1901 479.1L88.7001 479.7L90.9701 482.37L93.4501 484.36L96.4101 486.01L99.9801 487.45L105.44 489.18L105.85 489.3Z" fill="black"/>
</svg>
